<svg width="32" height="32" viewBox="0 0 32 32" fill="none" xmlns="http://www.w3.org/2000/svg">
<path d="M23.9998 26.6667C24.7362 26.6667 25.3332 26.0697 25.3332 25.3333C25.3332 24.597 24.7362 24 23.9998 24C23.2635 24 22.6665 24.597 22.6665 25.3333C22.6665 26.0697 23.2635 26.6667 23.9998 26.6667Z" stroke="white" style="stroke:white;stroke-opacity:1;" stroke-width="1.5" stroke-miterlimit="10" stroke-linecap="round" stroke-linejoin="round"/>
<path d="M13.3333 26.6667C14.0697 26.6667 14.6667 26.0697 14.6667 25.3333C14.6667 24.597 14.0697 24 13.3333 24C12.597 24 12 24.597 12 25.3333C12 26.0697 12.597 26.6667 13.3333 26.6667Z" stroke="white" style="stroke:white;stroke-opacity:1;" stroke-width="1.5" stroke-miterlimit="10" stroke-linecap="round" stroke-linejoin="round"/>
<path d="M29.3333 5.33337L26.6667 20H10.6667L8 5.33337" stroke="white" style="stroke:white;stroke-opacity:1;" stroke-width="1.5" stroke-miterlimit="10" stroke-linecap="round" stroke-linejoin="round"/>
<path d="M2.6665 5.33337H7.99984" stroke="white" style="stroke:white;stroke-opacity:1;" stroke-width="1.5" stroke-miterlimit="10" stroke-linecap="round" stroke-linejoin="round"/>
<path d="M14.6665 14.6666H22.6665" stroke="white" style="stroke:white;stroke-opacity:1;" stroke-width="1.5" stroke-miterlimit="10" stroke-linecap="round" stroke-linejoin="round"/>
<path d="M13.3335 9.33337H24.0002" stroke="white" style="stroke:white;stroke-opacity:1;" stroke-width="1.5" stroke-miterlimit="10" stroke-linecap="round" stroke-linejoin="round"/>
</svg>
